<svg xmlns="http://www.w3.org/2000/svg" width="680" height="210" viewBox="0 0 680 210"><rect width="124" height="140" x="40" y="30" fill="#e1f5ee" stroke="#5dcaa5" rx="16"/><circle cx="53" cy="43" r="3.5" fill="#5dcaa5" opacity=".45"/><circle cx="151" cy="43" r="3.5" fill="#5dcaa5" opacity=".45"/><circle cx="53" cy="157" r="3.5" fill="#5dcaa5" opacity=".45"/><circle cx="151" cy="157" r="3.5" fill="#5dcaa5" opacity=".45"/><rect width="70" height="16" x="57" y="62" fill="#9fe1cb" rx="4"/><rect width="70" height="16" x="57" y="92" fill="#9fe1cb" rx="4"/><rect width="70" height="16" x="57" y="122" fill="#9fe1cb" rx="4"/><circle cx="140" cy="70" r="5" fill="#1d9e75"/><circle cx="140" cy="100" r="5" fill="#378add"/><circle cx="140" cy="130" r="5" fill="#ef9f27"/><g opacity=".6"><circle cx="55" cy="183" r="4" fill="#1d9e75"/><path stroke="#5dcaa5" stroke-width="1.2" d="M59 183h17"/><circle cx="80" cy="183" r="4" fill="#378add"/><path stroke="#5dcaa5" stroke-width="1.2" d="M84 183h17"/><circle cx="105" cy="183" r="4" fill="#5dcaa5"/><path stroke="#5dcaa5" stroke-width="1.2" d="M109 183h17"/><circle cx="130" cy="183" r="4" fill="#ef9f27"/></g><text x="420" y="80" fill="#141413" font-family="ui-monospace, 'SF Mono', 'Cascadia Code', monospace" font-size="31" font-weight="500" text-anchor="middle">
    server-monitoring
  </text><text x="420" y="110" fill="#3d3d3a" font-family="ui-monospace, 'SF Mono', 'Cascadia Code', monospace" font-size="12" text-anchor="middle">
    maintenance · monitoring · workflows
  </text><text x="420" y="128" fill="#737268" font-family="ui-monospace, 'SF Mono', 'Cascadia Code', monospace" font-size="11" text-anchor="middle">
    Django-based alert ingestion, health checks,
  </text><text x="420" y="143" fill="#737268" font-family="ui-monospace, 'SF Mono', 'Cascadia Code', monospace" font-size="11" text-anchor="middle">
    AI analysis &amp; notification delivery
  </text><text x="420" y="187" fill="#737268" font-family="ui-monospace, 'SF Mono', 'Cascadia Code', monospace" font-size="10" text-anchor="middle">
    ingest → check → analyze → notify
  </text></svg>